<svg width="360" height="360" viewBox="0 0 360 360" fill="none" xmlns="http://www.w3.org/2000/svg" role="img" aria-labelledby="title desc">
  <title id="title">ZIAN monolith signet</title>
  <desc id="desc">Dark faceted monolith mark with metallic Z, aura, reflection, rim highlights and engraved lines.</desc>
  <defs>
    <radialGradient id="aura" cx="0" cy="0" r="1" gradientUnits="userSpaceOnUse" gradientTransform="translate(180 176) rotate(90) scale(154 126)">
      <stop offset="0" stop-color="#DDE4DA" stop-opacity="0.22"/>
      <stop offset="0.58" stop-color="#DDE4DA" stop-opacity="0.08"/>
      <stop offset="1" stop-color="#DDE4DA" stop-opacity="0"/>
    </radialGradient>
    <linearGradient id="shell" x1="95" y1="42" x2="271" y2="305" gradientUnits="userSpaceOnUse">
      <stop offset="0" stop-color="#3A3A3A"/>
      <stop offset="0.18" stop-color="#161616"/>
      <stop offset="0.55" stop-color="#050505"/>
      <stop offset="1" stop-color="#1B1B1B"/>
    </linearGradient>
    <linearGradient id="left" x1="94" y1="74" x2="183" y2="308" gradientUnits="userSpaceOnUse">
      <stop offset="0" stop-color="#2A2A2A" stop-opacity="0.70"/>
      <stop offset="1" stop-color="#050505" stop-opacity="0.95"/>
    </linearGradient>
    <linearGradient id="right" x1="275" y1="74" x2="181" y2="309" gradientUnits="userSpaceOnUse">
      <stop offset="0" stop-color="#555555" stop-opacity="0.42"/>
      <stop offset="0.7" stop-color="#0A0A0A" stop-opacity="0.92"/>
      <stop offset="1" stop-color="#222222" stop-opacity="0.78"/>
    </linearGradient>
    <linearGradient id="zbody" x1="114" y1="104" x2="246" y2="215" gradientUnits="userSpaceOnUse">
      <stop offset="0" stop-color="#F6F6EE"/>
      <stop offset="0.20" stop-color="#CCCCCC"/>
      <stop offset="0.52" stop-color="#555555"/>
      <stop offset="0.78" stop-color="#CCCCCC"/>
      <stop offset="1" stop-color="#F6F6EE"/>
    </linearGradient>
    <linearGradient id="zhigh" x1="100" y1="91" x2="240" y2="236" gradientUnits="userSpaceOnUse">
      <stop offset="0" stop-color="#FFFFFF" stop-opacity="0.74"/>
      <stop offset="0.38" stop-color="#DCDCDC" stop-opacity="0.32"/>
      <stop offset="1" stop-color="#FFFFFF" stop-opacity="0.08"/>
    </linearGradient>
    <linearGradient id="rim" x1="108" y1="54" x2="258" y2="290" gradientUnits="userSpaceOnUse">
      <stop offset="0" stop-color="#FFFFFF" stop-opacity="0.60"/>
      <stop offset="0.42" stop-color="#888888" stop-opacity="0.20"/>
      <stop offset="0.72" stop-color="#FFFFFF" stop-opacity="0.40"/>
      <stop offset="1" stop-color="#555555" stop-opacity="0.20"/>
    </linearGradient>
    <filter id="softShadow" x="-30%" y="-30%" width="160%" height="160%">
      <feDropShadow dx="0" dy="28" stdDeviation="22" flood-color="#000000" flood-opacity="0.86"/>
      <feDropShadow dx="0" dy="0" stdDeviation="18" flood-color="#DDE4DA" flood-opacity="0.14"/>
    </filter>
    <filter id="innerShadow" x="-20%" y="-20%" width="140%" height="140%">
      <feDropShadow dx="0" dy="12" stdDeviation="10" flood-color="#000000" flood-opacity="0.65"/>
    </filter>
  </defs>
  <ellipse cx="180" cy="176" rx="126" ry="154" fill="url(#aura)" opacity="0.82"/>
  <ellipse cx="180" cy="318" rx="80" ry="11" fill="#C8C8C8" opacity="0.10"/>
  <g filter="url(#softShadow)">
    <path d="M180 35 274 89v141l-94 97-94-97V89l94-54Z" fill="url(#shell)" stroke="#F6F6EE" stroke-opacity="0.20" stroke-width="1.25"/>
    <path d="M180 35 86 89v141l94 97v-43l-65-68V106l65-38V35Z" fill="url(#left)" opacity="0.86"/>
    <path d="M180 35 274 89v141l-94 97v-43l65-68V106l-65-38V35Z" fill="url(#right)" opacity="0.86"/>
    <path d="M180 72 238 107v104l-58 61-58-61V107l58-35Z" fill="#E1E1D8" fill-opacity="0.075" stroke="#F5F5EB" stroke-opacity="0.18" stroke-width="0.85" stroke-linejoin="round"/>
    <path d="M180 52 250 93l-70 41-70-41 70-41Z" fill="#FFFFFF" opacity="0.04"/>
    <path d="M180 35 274 89v141l-94 97-94-97V89l94-54Z" fill="none" stroke="url(#rim)" stroke-linejoin="round" stroke-width="2"/>
    <path d="M180 65 246 104v111l-66 70-66-70V104l66-39Z" fill="none" stroke="#ECF0E8" stroke-opacity="0.36" stroke-dasharray="2 7" stroke-linejoin="round" stroke-width="0.9" opacity="0.78"/>
    <g filter="url(#innerShadow)">
      <path d="M114 104h132v32l-72 47h72v32H114v-32l72-47h-72v-32z" fill="url(#zbody)" stroke="#FFFFFF" stroke-opacity="0.34" stroke-width="1.05" stroke-linejoin="round"/>
      <path d="M114 104h132v32H114z" fill="url(#zhigh)"/>
      <path d="M186 136h60l-72 47h-60z" fill="url(#zhigh)" opacity="0.56"/>
      <path d="M114 183h132v32H114z" fill="url(#zhigh)" opacity="0.26"/>
    </g>
    <g fill="none" stroke="#F4F7F0" stroke-opacity="0.42" stroke-linecap="round" stroke-width="0.85" opacity="0.74">
      <path d="M130 120h100"/><path d="M206 142l-52 35"/><path d="M130 199h100"/><path d="M180 65v39"/><path d="M180 215v70"/>
    </g>
    <g fill="none" stroke="#F6F6EC" stroke-opacity="0.70" stroke-linecap="round" stroke-linejoin="round" stroke-width="0.8" opacity="0.34">
      <path d="M110 89 180 48 250 89"/><path d="M100 229 180 310 260 229"/>
    </g>
  </g>
</svg>