<svg width="1280" height="640" viewBox="0 0 1280 640" fill="none" xmlns="http://www.w3.org/2000/svg">
  <rect width="1280" height="640" fill="#050505"/>
  <g opacity="0.12" stroke="#F6F6EE"><path d="M0 128h1280M0 256h1280M0 384h1280M0 512h1280"/><path d="M128 0v640M256 0v640M384 0v640M512 0v640M640 0v640M768 0v640M896 0v640M1024 0v640M1152 0v640"/></g>
  <g transform="translate(905 95) scale(0.9)" opacity="0.94"><path d="M180 35 274 89v141l-94 97-94-97V89l94-54Z" fill="#0A0A0A" stroke="#CCCCCC" stroke-opacity="0.42" stroke-width="2"/><path d="M180 72 238 107v104l-58 61-58-61V107l58-35Z" fill="#050505" stroke="#555555" stroke-opacity="0.65"/><path d="M114 104h132v32l-72 47h72v32H114v-32l72-47h-72v-32z" fill="#CCCCCC"/><path d="M114 104h132v32H114z" fill="#F6F6EE" opacity="0.45"/></g>
  <text x="82" y="250" fill="#F6F6EE" font-size="74" font-weight="700" font-family="Space Grotesk, Sora, Inter, Arial, sans-serif">ZIAN Brand System</text>
  <text x="86" y="312" fill="#CCCCCC" font-size="28" font-family="Inter, Arial, sans-serif">Assets, Tokens, Guidelines und Templates.</text>
  <text x="88" y="410" fill="#888888" font-size="21" font-family="JetBrains Mono, Consolas, monospace" letter-spacing="0.14em">VOID / GRAPHITE / TITANIUM / AURA</text>
</svg>