<svg width="900" height="560" viewBox="0 0 900 560" fill="none" xmlns="http://www.w3.org/2000/svg">
  <rect width="900" height="560" fill="#050505"/>
  <path d="M34 34H866V526H34V34Z" fill="#0A0A0A" stroke="#F6F6EE" stroke-opacity="0.14"/>
  <path d="M34 34H866" stroke="#E8EEE2" stroke-opacity="0.26"/>
  <text x="62" y="88" fill="#888888" font-size="18" font-family="JetBrains Mono, Consolas, monospace" letter-spacing="0.14em">PROJECT_01 / ACTIVE</text>
  <text x="62" y="192" fill="#F6F6EE" font-size="58" font-weight="700" font-family="Space Grotesk, Sora, Inter, Arial, sans-serif">Monolith Interface</text>
  <text x="64" y="246" fill="#CCCCCC" font-size="24" font-family="Inter, Arial, sans-serif">System Design / UX / Automation</text>
  <path d="M64 312h420" stroke="#E8EEE2" stroke-opacity="0.24"/>
  <text x="64" y="366" fill="#888888" font-size="18" font-family="JetBrains Mono, Consolas, monospace" letter-spacing="0.12em">SYSTEM · BUILD · STRATEGY</text>
  <g transform="translate(638 160) scale(0.72)" opacity="0.96"><path d="M180 35 274 89v141l-94 97-94-97V89l94-54Z" fill="#050505" stroke="#CCCCCC" stroke-opacity="0.42" stroke-width="2"/><path d="M180 72 238 107v104l-58 61-58-61V107l58-35Z" fill="#0A0A0A" stroke="#555555" stroke-opacity="0.65"/><path d="M114 104h132v32l-72 47h72v32H114v-32l72-47h-72v-32z" fill="#CCCCCC"/><path d="M114 104h132v32H114z" fill="#F6F6EE" opacity="0.45"/></g>
</svg>