<svg width="1200" height="630" viewBox="0 0 1200 630" fill="none" xmlns="http://www.w3.org/2000/svg">
  <rect width="1200" height="630" fill="#050505"/>
  <radialGradient id="g" cx="0" cy="0" r="1" gradientUnits="userSpaceOnUse" gradientTransform="translate(880 260) rotate(90) scale(360 470)">
    <stop stop-color="#DDE4DA" stop-opacity="0.20"/>
    <stop offset="0.58" stop-color="#DDE4DA" stop-opacity="0.06"/>
    <stop offset="1" stop-color="#DDE4DA" stop-opacity="0"/>
  </radialGradient>
  <rect width="1200" height="630" fill="url(#g)"/>
  <g opacity="0.12" stroke="#F6F6EE"><path d="M0 105h1200M0 210h1200M0 315h1200M0 420h1200M0 525h1200"/><path d="M120 0v630M240 0v630M360 0v630M480 0v630M600 0v630M720 0v630M840 0v630M960 0v630M1080 0v630"/></g>
  <g transform="translate(780 100) scale(0.9)">
    <path d="M180 35 274 89v141l-94 97-94-97V89l94-54Z" fill="#0A0A0A" stroke="#CCCCCC" stroke-opacity="0.42" stroke-width="2"/>
    <path d="M180 72 238 107v104l-58 61-58-61V107l58-35Z" fill="#050505" stroke="#555555" stroke-opacity="0.65"/>
    <path d="M114 104h132v32l-72 47h72v32H114v-32l72-47h-72v-32z" fill="#CCCCCC"/>
    <path d="M114 104h132v32H114z" fill="#F6F6EE" opacity="0.45"/>
  </g>
  <text x="90" y="230" fill="#F6F6EE" font-size="78" font-weight="700" font-family="Space Grotesk, Sora, Inter, Arial, sans-serif">ZIAN AI Concepts</text>
  <text x="94" y="295" fill="#CCCCCC" font-size="30" font-family="Inter, Arial, sans-serif">Präzision im Kern. Klarheit im System.</text>
  <text x="96" y="410" fill="#888888" font-size="22" font-family="JetBrains Mono, Consolas, monospace" letter-spacing="0.15em">MONOLITH DESIGN SYSTEM</text>
  <path d="M96 448h420" stroke="#E8EEE2" stroke-opacity="0.30"/>
</svg>